<svg width="24" height="25" viewBox="0 0 24 25" fill="none" xmlns="http://www.w3.org/2000/svg">
<g id="Iconly/Bold/Search">
<g id="Search">
<path id="Search_2" fill-rule="evenodd" clip-rule="evenodd" d="M1.99976 10.6729C1.99976 5.88459 5.8401 2.00293 10.5774 2.00293C12.8523 2.00293 15.0341 2.91637 16.6427 4.54229C18.2513 6.16822 19.155 8.37345 19.155 10.6729C19.155 15.4611 15.3147 19.3428 10.5774 19.3428C5.8401 19.3428 1.99976 15.4611 1.99976 10.6729ZM19.0131 17.6572L21.5678 19.7193H21.6121C22.129 20.2417 22.129 21.0887 21.6121 21.6111C21.0953 22.1335 20.2573 22.1335 19.7405 21.6111L17.6205 19.1814C17.4201 18.9795 17.3074 18.7053 17.3074 18.4193C17.3074 18.1333 17.4201 17.8591 17.6205 17.6572C18.007 17.2733 18.6266 17.2733 19.0131 17.6572Z" fill="#6E9CFD"/>
</g>
</g>
</svg>
